<svg width="630" height="159" viewBox="0 0 630 159" fill="none" xmlns="http://www.w3.org/2000/svg">
<g clip-path="url(#clip0_122_63)">
<path d="M238.09 133.77V44.08H257.45L296.31 102.31V44.08H316.35V133.77H297.93L258.13 74.47V133.77H238.09Z" fill="#0D2730"/>
<path d="M365.03 133.77L364.49 127.85C360.01 133.05 353.64 135.65 345.39 135.65C342.43 135.65 339.32 135.09 336.04 133.97C332.77 132.85 329.97 130.86 327.64 127.99C325.31 125.12 324.14 121.18 324.14 116.16C324.14 111.14 325.42 107.06 327.97 103.65C330.52 100.24 334 97.67 338.39 95.92C342.78 94.17 347.71 93.3 353.18 93.3C355.42 93.3 357.68 93.35 359.97 93.43C362.26 93.52 363.76 93.65 364.47 93.83V92.49C364.47 89.26 363.24 86.96 360.77 85.56C358.3 84.17 355.5 83.48 352.37 83.48C348.16 83.48 344.61 84.02 341.75 85.09C338.88 86.17 336.46 87.38 334.49 88.72L326.56 76.89C329.16 74.83 332.7 72.92 337.18 71.18C341.66 69.43 347.62 68.56 355.06 68.56C364.65 68.56 371.73 71.14 376.31 76.29C380.88 81.45 383.17 88.37 383.17 97.07V133.78H365.02L365.03 133.77ZM364.5 111.04V105.93C364.05 105.84 363.2 105.73 361.95 105.59C360.69 105.46 359.26 105.39 357.65 105.39C352.27 105.39 348.46 106.15 346.22 107.68C343.98 109.21 342.86 111.36 342.86 114.13C342.86 119.33 346 121.93 352.27 121.93C355.32 121.93 358.12 120.99 360.68 119.11C363.23 117.23 364.51 114.54 364.51 111.04H364.5Z" fill="#0D2730"/>
<path d="M397.58 109.7V85.9H387.63V70.7H397.58V49.99H416.94V70.7H433.21V85.9H416.94V110.78C416.94 113.83 417.55 116.18 418.76 117.84C419.97 119.5 421.87 120.33 424.47 120.33C426.44 120.33 428.14 119.99 429.58 119.32C431.01 118.65 432.36 117.86 433.61 116.97L441.41 128.8C435.4 133.64 428.77 136.06 421.51 136.06C415.5 136.06 410.75 134.94 407.26 132.7C403.76 130.46 401.28 127.37 399.8 123.42C398.32 119.48 397.58 114.9 397.58 109.7Z" fill="#0D2730"/>
<path d="M438.86 102.17C438.86 95.98 440.29 90.34 443.16 85.23C446.03 80.12 449.99 76.06 455.06 73.06C460.12 70.06 466.02 68.56 472.74 68.56C479.46 68.56 485.36 70.06 490.42 73.06C495.48 76.06 499.43 80.12 502.25 85.23C505.07 90.34 506.49 95.99 506.49 102.17C506.49 108.35 505.08 114 502.25 119.11C499.42 124.22 495.48 128.3 490.42 131.35C485.35 134.4 479.46 135.92 472.74 135.92C466.02 135.92 460.12 134.39 455.06 131.35C449.99 128.3 446.03 124.22 443.16 119.11C440.29 114 438.86 108.35 438.86 102.17ZM472.75 119.11C476.07 119.11 478.82 118.3 481.02 116.69C483.22 115.08 484.9 112.97 486.06 110.37C487.22 107.77 487.81 105.04 487.81 102.17C487.81 99.3 487.23 96.59 486.06 94.03C484.89 91.47 483.21 89.39 481.02 87.78C478.82 86.17 476.07 85.36 472.75 85.36C469.43 85.36 466.77 86.17 464.48 87.78C462.19 89.39 460.47 91.48 459.3 94.03C458.13 96.59 457.55 99.3 457.55 102.17C457.55 105.04 458.13 107.77 459.3 110.37C460.46 112.97 462.19 115.08 464.48 116.69C466.77 118.3 469.52 119.11 472.75 119.11Z" fill="#0D2730"/>
<path d="M515.24 133.77V44.08H535.55V133.77H515.24Z" fill="#0D2730"/>
<path d="M548.72 133.77V44.08H582.61C591.84 44.08 600.07 45.67 607.29 48.85C614.5 52.03 620.18 56.96 624.3 63.64C628.42 70.32 630.49 78.9 630.49 89.39C630.49 99.25 628.41 107.48 624.24 114.07C620.07 120.66 614.38 125.59 607.16 128.86C599.94 132.13 591.72 133.77 582.48 133.77H548.73H548.72ZM569.03 115.75H581.4C590.36 115.75 597.27 113.38 602.11 108.62C606.95 103.87 609.37 97.41 609.37 89.26C609.37 81.11 607.13 74.4 602.65 69.43C598.17 64.45 591.09 61.97 581.4 61.97H569.03V115.76V115.75Z" fill="#0D2730"/>
<path fill-rule="evenodd" clip-rule="evenodd" d="M47.9 -0.019989H90.72L43.1 158.73H0.27002L47.9 -0.019989Z" fill="#0D2730"/>
<path fill-rule="evenodd" clip-rule="evenodd" d="M90.8102 -0.019989H47.9902L116.63 94.64L129.15 52.87L90.8102 -0.019989Z" fill="#6FBF96"/>
<path fill-rule="evenodd" clip-rule="evenodd" d="M150.71 158.73H107.89L155.52 -0.019989H198.34L150.71 158.73Z" fill="#0D2730"/>
<path fill-rule="evenodd" clip-rule="evenodd" d="M107.79 158.73H150.62L81.98 64.08L69.46 105.85L107.79 158.73Z" fill="#6FBF96"/>
</g>
<defs>
<clipPath id="clip0_122_63">
<rect width="630" height="159" fill="white"/>
</clipPath>
</defs>
</svg>
