<?xml version="1.0" encoding="UTF-8"?>
<svg id="Camada_1" data-name="Camada 1" xmlns="http://www.w3.org/2000/svg" viewBox="0 0 1080 1080">
  <defs>
    <style>
      .cls-1, .cls-2, .cls-3 {
        stroke-width: 0px;
      }

      .cls-1, .cls-3 {
        fill: #0d2730;
      }

      .cls-2 {
        fill: #6fbf96;
      }

      .cls-2, .cls-3 {
        fill-rule: evenodd;
      }
    </style>
  </defs>
  <g>
    <path class="cls-1" d="M460.09,560.77v-89.69h19.36l38.86,58.23v-58.23h20.04v89.69h-18.42l-39.8-59.3v59.3h-20.04Z"/>
    <path class="cls-1" d="M587.03,560.77l-.54-5.92c-4.48,5.2-10.85,7.8-19.1,7.8-2.96,0-6.07-.56-9.35-1.68-3.27-1.12-6.07-3.11-8.4-5.98-2.33-2.87-3.5-6.81-3.5-11.83s1.28-9.1,3.83-12.51c2.55-3.41,6.03-5.98,10.42-7.73,4.39-1.75,9.32-2.62,14.79-2.62,2.24,0,4.5.05,6.79.13,2.29.09,3.79.22,4.5.4v-1.34c0-3.23-1.23-5.53-3.7-6.93-2.47-1.39-5.27-2.08-8.4-2.08-4.21,0-7.76.54-10.62,1.61-2.87,1.08-5.29,2.29-7.26,3.63l-7.93-11.83c2.6-2.06,6.14-3.97,10.62-5.71,4.48-1.75,10.44-2.62,17.88-2.62,9.59,0,16.67,2.58,21.25,7.73,4.57,5.16,6.86,12.08,6.86,20.78v36.71h-18.15ZM586.5,538.04v-5.11c-.45-.09-1.3-.2-2.55-.34-1.26-.13-2.69-.2-4.3-.2-5.38,0-9.19.76-11.43,2.29-2.24,1.53-3.36,3.68-3.36,6.45,0,5.2,3.14,7.8,9.41,7.8,3.05,0,5.85-.94,8.41-2.82,2.55-1.88,3.83-4.57,3.83-8.07Z"/>
    <path class="cls-1" d="M619.58,536.7v-23.8h-9.95v-15.2h9.95v-20.71h19.36v20.71h16.27v15.2h-16.27v24.88c0,3.05.61,5.4,1.82,7.06,1.21,1.66,3.11,2.49,5.71,2.49,1.97,0,3.67-.34,5.11-1.01,1.43-.67,2.78-1.46,4.03-2.35l7.8,11.83c-6.01,4.84-12.64,7.26-19.9,7.26-6.01,0-10.76-1.12-14.25-3.36-3.5-2.24-5.98-5.33-7.46-9.28-1.48-3.94-2.22-8.52-2.22-13.72Z"/>
    <path class="cls-1" d="M660.86,529.17c0-6.19,1.43-11.83,4.3-16.94,2.87-5.11,6.83-9.17,11.9-12.17,5.06-3,10.96-4.5,17.68-4.5s12.62,1.5,17.68,4.5c5.06,3,9.01,7.06,11.83,12.17,2.82,5.11,4.24,10.76,4.24,16.94s-1.41,11.83-4.24,16.94-6.77,9.19-11.83,12.24c-5.07,3.05-10.96,4.57-17.68,4.57s-12.62-1.53-17.68-4.57c-5.07-3.05-9.03-7.13-11.9-12.24-2.87-5.11-4.3-10.76-4.3-16.94ZM694.75,546.11c3.32,0,6.07-.81,8.27-2.42,2.2-1.61,3.88-3.72,5.04-6.32,1.16-2.6,1.75-5.33,1.75-8.2s-.58-5.58-1.75-8.14c-1.17-2.56-2.85-4.64-5.04-6.25-2.2-1.61-4.95-2.42-8.27-2.42s-5.98.81-8.27,2.42-4.01,3.7-5.18,6.25c-1.17,2.56-1.75,5.27-1.75,8.14s.58,5.6,1.75,8.2c1.16,2.6,2.89,4.71,5.18,6.32s5.04,2.42,8.27,2.42Z"/>
    <path class="cls-1" d="M737.24,560.77v-89.69h20.31v89.69h-20.31Z"/>
    <path class="cls-1" d="M770.72,560.77v-89.69h33.89c9.23,0,17.46,1.59,24.68,4.77,7.21,3.18,12.89,8.11,17.01,14.79,4.12,6.68,6.19,15.26,6.19,25.75,0,9.86-2.08,18.09-6.25,24.68-4.17,6.59-9.86,11.52-17.08,14.79-7.22,3.27-15.44,4.91-24.68,4.91h-33.75ZM791.03,542.75h12.37c8.96,0,15.87-2.37,20.71-7.13,4.84-4.75,7.26-11.21,7.26-19.36s-2.24-14.86-6.72-19.83c-4.48-4.98-11.56-7.46-21.25-7.46h-12.37v53.79Z"/>
  </g>
  <g>
    <polygon class="cls-3" points="269.9 426.98 312.72 426.98 265.1 585.73 222.27 585.73 269.9 426.98"/>
    <polygon class="cls-2" points="312.81 426.98 269.99 426.98 338.63 521.64 351.15 479.87 312.81 426.98"/>
    <polygon class="cls-3" points="372.71 585.73 329.89 585.73 377.52 426.98 420.34 426.98 372.71 585.73"/>
    <polygon class="cls-2" points="329.79 585.73 372.62 585.73 303.98 491.08 291.46 532.85 329.79 585.73"/>
  </g>
</svg>