<?xml version="1.0" encoding="UTF-8"?>
<svg id="Camada_1" data-name="Camada 1" xmlns="http://www.w3.org/2000/svg" viewBox="0 0 1080 1080">
  <defs>
    <style>
      .cls-1, .cls-2, .cls-3 {
        stroke-width: 0px;
      }

      .cls-1, .cls-3 {
        fill: #0d2730;
      }

      .cls-2 {
        fill: #6fbf96;
      }

      .cls-2, .cls-3 {
        fill-rule: evenodd;
      }
    </style>
  </defs>
  <g>
    <path class="cls-1" d="M307.57,789.59v-107.22h23.15l46.46,69.6v-69.6h23.95v107.22h-22.02l-47.58-70.89v70.89h-23.95Z"/>
    <path class="cls-1" d="M459.31,789.59l-.64-7.07c-5.36,6.22-12.97,9.32-22.83,9.32-3.54,0-7.26-.67-11.17-2.01-3.91-1.34-7.26-3.72-10.05-7.15-2.79-3.43-4.18-8.14-4.18-14.15s1.53-10.88,4.58-14.95c3.05-4.07,7.21-7.15,12.46-9.24,5.25-2.09,11.14-3.13,17.68-3.13,2.68,0,5.39.05,8.12.16,2.73.11,4.53.27,5.38.48v-1.61c0-3.86-1.47-6.62-4.42-8.28-2.95-1.66-6.3-2.49-10.05-2.49-5.04,0-9.27.64-12.7,1.93-3.43,1.29-6.32,2.73-8.68,4.34l-9.48-14.15c3.11-2.46,7.34-4.74,12.7-6.83,5.36-2.09,12.48-3.13,21.38-3.13,11.47,0,19.93,3.08,25.4,9.24,5.47,6.16,8.2,14.44,8.2,24.83v43.88h-21.7ZM458.67,762.43v-6.11c-.54-.11-1.55-.24-3.05-.4-1.5-.16-3.21-.24-5.14-.24-6.43,0-10.99.91-13.66,2.73-2.68,1.82-4.02,4.4-4.02,7.72,0,6.22,3.75,9.32,11.25,9.32,3.64,0,6.99-1.12,10.05-3.38,3.05-2.25,4.58-5.46,4.58-9.64Z"/>
    <path class="cls-1" d="M498.21,760.82v-28.45h-11.9v-18.16h11.9v-24.75h23.15v24.75h19.45v18.16h-19.45v29.74c0,3.64.72,6.46,2.17,8.44,1.45,1.98,3.72,2.97,6.83,2.97,2.36,0,4.39-.4,6.11-1.21,1.71-.8,3.32-1.74,4.82-2.81l9.32,14.15c-7.18,5.79-15.11,8.68-23.79,8.68-7.18,0-12.86-1.34-17.04-4.02-4.18-2.68-7.15-6.37-8.92-11.09-1.77-4.71-2.65-10.18-2.65-16.4Z"/>
    <path class="cls-1" d="M547.56,751.82c0-7.39,1.71-14.14,5.14-20.25,3.43-6.11,8.17-10.96,14.23-14.55,6.05-3.59,13.1-5.38,21.14-5.38s15.08,1.8,21.14,5.38c6.05,3.59,10.77,8.44,14.15,14.55,3.38,6.11,5.06,12.86,5.06,20.25s-1.69,14.15-5.06,20.25c-3.38,6.11-8.09,10.99-14.15,14.63-6.06,3.64-13.1,5.47-21.14,5.47s-15.08-1.82-21.14-5.47c-6.06-3.64-10.8-8.52-14.23-14.63-3.43-6.11-5.14-12.86-5.14-20.25ZM588.06,772.07c3.96,0,7.26-.96,9.89-2.89,2.62-1.93,4.63-4.45,6.03-7.56,1.39-3.11,2.09-6.37,2.09-9.81s-.7-6.67-2.09-9.72c-1.39-3.05-3.4-5.55-6.03-7.47-2.63-1.93-5.92-2.89-9.89-2.89s-7.15.96-9.89,2.89c-2.73,1.93-4.8,4.42-6.19,7.47-1.39,3.05-2.09,6.3-2.09,9.72s.7,6.7,2.09,9.81c1.39,3.11,3.46,5.63,6.19,7.56,2.73,1.93,6.03,2.89,9.89,2.89Z"/>
    <path class="cls-1" d="M638.86,789.59v-107.22h24.27v107.22h-24.27Z"/>
    <path class="cls-1" d="M678.88,789.59v-107.22h40.51c11.04,0,20.87,1.9,29.5,5.71,8.62,3.8,15.4,9.7,20.33,17.68,4.93,7.98,7.39,18.24,7.39,30.78,0,11.79-2.49,21.62-7.47,29.5-4.98,7.88-11.79,13.77-20.41,17.68-8.63,3.91-18.46,5.87-29.5,5.87h-40.35ZM703.15,768.05h14.79c10.71,0,18.97-2.84,24.75-8.52,5.79-5.68,8.68-13.39,8.68-23.15s-2.68-17.76-8.04-23.71c-5.36-5.95-13.82-8.92-25.4-8.92h-14.79v64.3Z"/>
  </g>
  <g>
    <polygon class="cls-3" points="418.5 252.13 519.71 252.13 407.15 627.33 305.95 627.33 418.5 252.13"/>
    <polygon class="cls-2" points="519.93 252.13 418.72 252.13 580.94 475.85 610.54 377.13 519.93 252.13"/>
    <polygon class="cls-3" points="661.5 627.33 560.29 627.33 672.85 252.13 774.05 252.13 661.5 627.33"/>
    <polygon class="cls-2" points="560.04 627.33 661.28 627.33 499.06 403.61 469.46 502.34 560.04 627.33"/>
  </g>
</svg>